<svg width="32" height="32" viewBox="0 0 32 32" fill="none" xmlns="http://www.w3.org/2000/svg">
<path d="M22.448 12.4302H18.44V11.435H22.4496V12.4318L22.448 12.4302ZM15.7712 16.5149C16.0304 16.9149 16.1584 17.4013 16.1584 17.9725C16.1584 18.5645 16.0144 19.0925 15.7168 19.5613C15.5185 19.8907 15.2535 20.1748 14.9389 20.3956C14.6242 20.6163 14.2667 20.7687 13.8896 20.8429C13.4266 20.9355 12.9553 20.9806 12.4832 20.9773H8V11.0222H12.808C14.0192 11.0414 14.8784 11.3934 15.3856 12.083C15.6896 12.5054 15.8416 13.0126 15.8416 13.603C15.8416 14.2109 15.6896 14.6989 15.3808 15.0685C15.2112 15.2765 14.9584 15.4653 14.624 15.6349C15.1296 15.8205 15.5136 16.1117 15.7712 16.5149ZM10.296 14.9469H12.4032C12.8352 14.9469 13.1856 14.8653 13.4544 14.7005C13.7248 14.5357 13.8592 14.2445 13.8592 13.8253C13.8592 13.3614 13.6816 13.0542 13.3248 12.907C12.9436 12.7928 12.5466 12.7399 12.1488 12.7502H10.296V14.9469V14.9469ZM14.0624 17.8301C14.0624 17.3133 13.8496 16.9565 13.4288 16.7645C13.192 16.6557 12.8592 16.5997 12.4336 16.5949H10.296V19.2477H12.4C12.832 19.2477 13.168 19.1917 13.408 19.0733C13.8432 18.8573 14.0624 18.4445 14.0624 17.8301V17.8301ZM23.936 16.2109C23.984 16.5373 24.0064 17.0093 23.9984 17.6269H18.8064C18.8352 18.3437 19.0816 18.8445 19.552 19.1309C19.8336 19.3117 20.176 19.3997 20.5792 19.3997C21.0032 19.3997 21.3472 19.2925 21.6144 19.0717C21.7735 18.9359 21.9035 18.7694 21.9968 18.5821H23.9008C23.8496 19.0061 23.6208 19.4349 23.2096 19.8717C22.5696 20.5645 21.6768 20.9117 20.5264 20.9117C19.6121 20.9236 18.7227 20.6132 18.0144 20.0349C17.2912 19.4493 16.9264 18.4989 16.9264 17.1789C16.9264 15.9421 17.2544 14.9949 17.9088 14.3357C18.5648 13.675 19.4144 13.347 20.4608 13.347C21.08 13.347 21.6384 13.4574 22.1376 13.6798C22.6336 13.9038 23.0448 14.2541 23.368 14.7357C23.6608 15.1613 23.848 15.6509 23.936 16.2109V16.2109ZM22.064 16.3965C22.0288 15.9005 21.8624 15.5261 21.5648 15.2701C21.2576 15.0085 20.8641 14.8705 20.4608 14.8829C19.9808 14.8829 19.6112 15.0221 19.3472 15.2925C19.0832 15.5645 18.9184 15.9325 18.8512 16.3965H22.064V16.3965Z" fill="black"/>
<rect x="1.2" y="1.2" width="29.6" height="29.6" rx="14.8" stroke="black" stroke-width="2.4"/>
</svg>
