<svg width="32" height="32" viewBox="0 0 32 32" fill="none" xmlns="http://www.w3.org/2000/svg">
<path d="M22.448 12.4303H18.44V11.4351H22.4496V12.4319L22.448 12.4303ZM15.7712 16.5151C16.0304 16.9151 16.1584 17.4015 16.1584 17.9727C16.1584 18.5647 16.0144 19.0927 15.7168 19.5615C15.5186 19.8908 15.2536 20.175 14.9389 20.3957C14.6242 20.6165 14.2668 20.7689 13.8896 20.8431C13.4266 20.9357 12.9554 20.9808 12.4832 20.9775H8.00003V11.0223H12.808C14.0192 11.0415 14.8784 11.3935 15.3856 12.0831C15.6896 12.5055 15.8416 13.0127 15.8416 13.6031C15.8416 14.2111 15.6896 14.6991 15.3808 15.0687C15.2112 15.2767 14.9584 15.4655 14.624 15.6351C15.1296 15.8207 15.5136 16.1119 15.7712 16.5151ZM10.296 14.9471H12.4032C12.8352 14.9471 13.1856 14.8655 13.4544 14.7007C13.7248 14.5359 13.8592 14.2447 13.8592 13.8255C13.8592 13.3615 13.6816 13.0543 13.3248 12.9071C12.9436 12.793 12.5466 12.74 12.1488 12.7503H10.296V14.9471ZM14.0624 17.8303C14.0624 17.3135 13.8496 16.9567 13.4288 16.7647C13.192 16.6559 12.8592 16.5999 12.4336 16.5951H10.296V19.2479H12.4C12.832 19.2479 13.168 19.1919 13.408 19.0735C13.8432 18.8575 14.0624 18.4447 14.0624 17.8303ZM23.936 16.2111C23.984 16.5375 24.0064 17.0095 23.9984 17.6271H18.8064C18.8352 18.3439 19.0816 18.8447 19.552 19.1311C19.8336 19.3119 20.176 19.3999 20.5792 19.3999C21.0032 19.3999 21.3472 19.2927 21.6144 19.0719C21.7735 18.9361 21.9036 18.7696 21.9968 18.5823H23.9008C23.8496 19.0063 23.6208 19.4351 23.2096 19.8719C22.5696 20.5647 21.6768 20.9119 20.5264 20.9119C19.6121 20.9237 18.7228 20.6133 18.0144 20.0351C17.2912 19.4495 16.9264 18.4991 16.9264 17.1791C16.9264 15.9423 17.2544 14.9951 17.9088 14.3359C18.5648 13.6751 19.4144 13.3471 20.4608 13.3471C21.08 13.3471 21.6384 13.4575 22.1376 13.6799C22.6336 13.9039 23.0448 14.2543 23.368 14.7359C23.6608 15.1615 23.848 15.6511 23.936 16.2111ZM22.064 16.3967C22.0288 15.9007 21.8624 15.5263 21.5648 15.2703C21.2576 15.0087 20.8641 14.8707 20.4608 14.8831C19.9808 14.8831 19.6112 15.0223 19.3472 15.2927C19.0832 15.5647 18.9184 15.9327 18.8512 16.3967H22.064Z" fill="#808BAE"/>
<rect x="1.2" y="1.2" width="29.6" height="29.6" rx="14.8" stroke="#808BAE" stroke-width="2.4"/>
</svg>
