<svg width="32" height="32" viewBox="0 0 32 32" fill="none" xmlns="http://www.w3.org/2000/svg">
<g clip-path="url(#clip0_392_806)">
<path d="M32 16.1154V16.0076C31.9985 13.6321 31.469 11.2866 30.45 9.14105C29.431 6.99545 27.9479 5.10341 26.1081 3.60188L26.0158 3.52492L25.9081 3.44796C23.5594 1.59099 20.7371 0.430575 17.762 0.0986248C14.7869 -0.233325 11.7784 0.27651 9.07849 1.57017L8.87851 1.67791C6.69595 2.76725 4.79004 4.33964 3.30538 6.27579C1.82072 8.21194 0.796305 10.461 0.309866 12.8523V12.8831C-0.281416 15.8407 -0.0230001 18.9055 1.05517 21.7222C2.13334 24.5389 3.98714 26.9923 6.40175 28.7981L6.60174 28.9521H6.61712C8.70602 30.4674 11.1302 31.4548 13.683 31.83C16.2358 32.2052 18.8414 31.9571 21.2777 31.1069L21.4469 31.0453C24.5119 29.9308 27.1642 27.9074 29.0498 25.2452C30.9354 22.5831 31.9646 19.4088 32 16.1461V16.1154ZM29.4771 14.8071L28.3079 14.7763C26.0276 14.7782 23.7572 15.0783 21.5546 15.669C21.0148 14.0755 20.3191 12.5391 19.4778 11.0823C21.6674 9.76237 23.6481 8.12307 25.3543 6.21847C27.7274 8.48393 29.1933 11.5376 29.4771 14.8071V14.8071ZM23.4314 4.69469C21.8946 6.38384 20.1165 7.83614 18.1548 9.00438C16.5077 6.69459 14.4971 4.66735 12.2014 3.0016C14.0842 2.45426 16.0633 2.32218 18.0022 2.61449C19.941 2.9068 21.7933 3.61652 23.4314 4.69469V4.69469ZM9.47847 4.14059C11.9996 5.72339 14.1974 7.77085 15.9549 10.1741C12.8796 11.5821 9.5376 12.3117 6.15562 12.3136C5.11103 12.3113 4.06776 12.2393 3.03276 12.0981C4.06481 8.70761 6.37702 5.85308 9.47847 4.14059V4.14059ZM2.46356 16.0076C2.46356 15.4997 2.49433 15.0071 2.54048 14.53C3.73905 14.6891 4.94656 14.7714 6.15562 14.7763C10.0154 14.7818 13.8271 13.9191 17.3087 12.252C18.0758 13.5764 18.7096 14.9736 19.2009 16.4232C17.8957 16.9208 16.6306 17.5177 15.4165 18.2086C12.0428 20.1629 9.15124 22.8509 6.95556 26.0738C5.54256 24.8054 4.41231 23.2536 3.63838 21.5192C2.86444 19.7849 2.46415 17.907 2.46356 16.0076V16.0076ZM8.92466 27.5514C11.5908 23.5801 15.4154 20.5274 19.8778 18.8089C20.2527 20.5021 20.4435 22.2309 20.4469 23.9651C20.4462 25.647 20.2657 27.324 19.9085 28.9674C18.643 29.3586 17.3256 29.5558 16.0011 29.5523C13.5029 29.5514 11.0538 28.8589 8.92466 27.5514V27.5514ZM22.6314 27.8131C22.8165 26.5388 22.9091 25.2528 22.9083 23.9651C22.907 21.9706 22.68 19.9827 22.2314 18.0393C24.2138 17.5104 26.2563 17.2414 28.3079 17.239L29.4771 17.2697C29.2715 19.4495 28.5415 21.5471 27.3494 23.3832C26.1572 25.2193 24.5384 26.7392 22.6314 27.8131V27.8131Z" fill="black"/>
</g>
<defs>
<clipPath id="clip0_392_806">
<rect width="32" height="32" fill="white"/>
</clipPath>
</defs>
</svg>
