<svg width="32" height="32" viewBox="0 0 32 32" fill="none" xmlns="http://www.w3.org/2000/svg">
<g clip-path="url(#clip0_454_995)">
<path d="M16 0C7.17765 0 0 7.17766 0 16C0 24.8223 7.17765 32 16 32C24.8223 32 32 24.8223 32 16C32 7.17766 24.8223 0 16 0ZM16 2.4C23.5253 2.4 29.6 8.47471 29.6 16C29.6 22.1323 25.5656 27.298 20 29.0016V24.9094C20 23.3813 19.1195 22.0709 17.8469 21.4188C19.0842 21.182 20.2332 20.7126 21.1984 20.0495C22.1635 19.3864 22.9171 18.5487 23.3965 17.6059C23.8759 16.6631 24.0673 15.6425 23.9549 14.6287C23.8425 13.6148 23.4294 12.6371 22.75 11.7766C23.1048 10.6843 23.5012 8.76854 22.5594 7.26094C20.7435 7.26094 19.5717 8.50567 19.0125 9.27969C18.0565 8.96563 17.0335 8.80273 16 8.8C14.9659 8.80092 13.9418 8.96223 12.9844 9.275C12.4238 8.50062 11.253 7.26094 9.44063 7.26094C8.35977 8.99105 9.02794 10.8516 9.38594 11.6109C8.66061 12.4678 8.2058 13.4525 8.06049 14.4808C7.91519 15.509 8.08372 16.5501 8.55165 17.5149C9.01957 18.4796 9.77294 19.3392 10.7472 20.0199C11.7214 20.7007 12.8874 21.1823 14.1453 21.4234C13.1004 21.962 12.3178 22.9392 12.0781 24.125H11.0266C9.98896 24.125 9.5858 23.7034 9.025 22.9922C8.4714 22.281 7.87614 21.8031 7.16094 21.6047C6.77534 21.5639 6.51556 21.8572 6.85156 22.1172C7.98676 22.89 8.06511 24.1548 8.52031 24.9828C8.93471 25.7284 9.78375 26.4 10.7438 26.4H12V29.0016C6.43445 27.298 2.4 22.1323 2.4 16C2.4 8.47471 8.47471 2.4 16 2.4Z" fill="#808BAE"/>
</g>
<defs>
<clipPath id="clip0_454_995">
<rect width="32" height="32" fill="white"/>
</clipPath>
</defs>
</svg>
