<svg width="32" height="32" viewBox="0 0 32 32" fill="none" xmlns="http://www.w3.org/2000/svg">
<path d="M10.868 12.144C10.388 12.144 9.99333 12.0053 9.684 11.728C9.38533 11.44 9.236 11.088 9.236 10.672C9.236 10.2453 9.38533 9.89333 9.684 9.616C9.99333 9.328 10.388 9.184 10.868 9.184C11.3373 9.184 11.7213 9.328 12.02 9.616C12.3293 9.89333 12.484 10.2453 12.484 10.672C12.484 11.088 12.3293 11.44 12.02 11.728C11.7213 12.0053 11.3373 12.144 10.868 12.144ZM12.228 13.072V22H9.492V13.072H12.228ZM19.6508 12.976C20.6961 12.976 21.5281 13.3173 22.1468 14C22.7761 14.672 23.0908 15.6 23.0908 16.784V22H20.3708V17.152C20.3708 16.5547 20.2161 16.0907 19.9068 15.76C19.5974 15.4293 19.1814 15.264 18.6588 15.264C18.1361 15.264 17.7201 15.4293 17.4108 15.76C17.1014 16.0907 16.9468 16.5547 16.9468 17.152V22H14.2108V13.072H16.9468V14.256C17.2241 13.8613 17.5974 13.552 18.0668 13.328C18.5361 13.0933 19.0641 12.976 19.6508 12.976Z" fill="#808BAE"/>
<rect x="1.2" y="1.2" width="29.6" height="29.6" rx="14.8" stroke="#808BAE" stroke-width="2.4"/>
</svg>
