<svg width="32" height="32" viewBox="0 0 32 32" fill="none" xmlns="http://www.w3.org/2000/svg">
<path d="M10.868 12.1441C10.388 12.1441 9.99333 12.0054 9.684 11.7281C9.38533 11.4401 9.236 11.0881 9.236 10.6721C9.236 10.2454 9.38533 9.89342 9.684 9.61609C9.99333 9.32809 10.388 9.18409 10.868 9.18409C11.3373 9.18409 11.7213 9.32809 12.02 9.61609C12.3293 9.89342 12.484 10.2454 12.484 10.6721C12.484 11.0881 12.3293 11.4401 12.02 11.7281C11.7213 12.0054 11.3373 12.1441 10.868 12.1441ZM12.228 13.0721V22.0001H9.492V13.0721H12.228ZM19.6508 12.9761C20.6961 12.9761 21.5281 13.3174 22.1468 14.0001C22.7761 14.6721 23.0908 15.6001 23.0908 16.7841V22.0001H20.3708V17.1521C20.3708 16.5548 20.2161 16.0908 19.9068 15.7601C19.5974 15.4294 19.1814 15.2641 18.6588 15.2641C18.1361 15.2641 17.7201 15.4294 17.4108 15.7601C17.1014 16.0908 16.9468 16.5548 16.9468 17.1521V22.0001H14.2108V13.0721H16.9468V14.2561C17.2241 13.8614 17.5974 13.5521 18.0668 13.3281C18.5361 13.0934 19.0641 12.9761 19.6508 12.9761Z" fill="black"/>
<rect x="1.2" y="1.2" width="29.6" height="29.6" rx="14.8" stroke="black" stroke-width="2.4"/>
</svg>
