<svg width="33" height="32" viewBox="0 0 33 32" fill="none" xmlns="http://www.w3.org/2000/svg">
<g clip-path="url(#clip0_392_910)">
<path d="M16.5 32C25.3366 32 32.5 24.8366 32.5 16C32.5 7.16344 25.3366 0 16.5 0C7.66344 0 0.5 7.16344 0.5 16C0.5 24.8366 7.66344 32 16.5 32Z" fill="#141518"/>
<path d="M13.572 24.4402C20.668 24.4402 24.548 18.5602 24.548 13.4642C24.548 13.2962 24.548 13.1282 24.54 12.9682C25.292 12.4242 25.948 11.7442 26.468 10.9682C25.78 11.2722 25.036 11.4802 24.252 11.5762C25.052 11.0962 25.66 10.3442 25.948 9.44016C25.204 9.88016 24.38 10.2002 23.5 10.3762C22.796 9.62416 21.796 9.16016 20.684 9.16016C18.556 9.16016 16.828 10.8882 16.828 13.0162C16.828 13.3202 16.86 13.6162 16.932 13.8962C13.724 13.7362 10.884 12.2002 8.98003 9.86416C8.65203 10.4322 8.46003 11.0962 8.46003 11.8002C8.46003 13.1362 9.14003 14.3202 10.18 15.0082C9.54803 14.9922 8.95603 14.8162 8.43603 14.5282C8.43603 14.5442 8.43603 14.5602 8.43603 14.5762C8.43603 16.4482 9.76403 18.0002 11.532 18.3602C11.212 18.4482 10.868 18.4962 10.516 18.4962C10.268 18.4962 10.028 18.4722 9.78803 18.4242C10.276 19.9602 11.7 21.0722 13.388 21.1042C12.068 22.1362 10.404 22.7522 8.59603 22.7522C8.28403 22.7522 7.98003 22.7362 7.67603 22.6962C9.36403 23.8002 11.396 24.4402 13.572 24.4402Z" fill="white"/>
</g>
<defs>
<clipPath id="clip0_392_910">
<rect width="32" height="32" fill="white" transform="translate(0.5)"/>
</clipPath>
</defs>
</svg>
