<svg width="42" height="42" viewBox="0 0 42 42" fill="none" xmlns="http://www.w3.org/2000/svg">
<ellipse cx="21" cy="21" rx="21" ry="21" fill="url(#paint0_linear_471_23828)"/>
<g style="mix-blend-mode:color-dodge">
<path d="M14.3431 19.4353C19.5691 21.6993 25.2583 19.4353 30.5642 23.5194C32.2861 20.8434 30.2652 18.179 26.7537 17.3222C22.8661 16.3737 19.4016 17.3222 17.9722 16.3737C16.5428 15.4251 17.414 13.4239 19.4016 13.0117C21.3892 12.5995 26.1492 12.5995 30.7692 16.0995C29.8732 8.44072 20.6892 8.39945 16.6292 9.79934C11.7448 11.4835 9.11704 17.1713 14.3431 19.4353Z" fill="#E3B68B"/>
</g>
<g style="mix-blend-mode:color-dodge">
<path d="M27.7661 23.6839C22.5401 21.4198 16.8508 23.6839 11.5449 19.5998C9.82304 22.2757 11.844 24.9402 15.3554 25.797C19.2431 26.7455 22.7075 25.797 24.1369 26.7455C25.5664 27.694 24.6951 29.6953 22.7075 30.1075C20.7199 30.5196 15.9599 30.5196 11.3399 27.0196C12.2359 34.6784 21.4199 34.7197 25.4799 33.3198C30.3643 31.6357 32.9921 25.9479 27.7661 23.6839Z" fill="#E3B68B"/>
</g>
<defs>
<linearGradient id="paint0_linear_471_23828" x1="21" y1="3.8147e-06" x2="21" y2="42" gradientUnits="userSpaceOnUse">
<stop stop-color="#FF5C52"/>
<stop offset="1" stop-color="#95327F"/>
</linearGradient>
</defs>
</svg>
