<svg width="32" height="32" viewBox="0 0 32 32" fill="none" xmlns="http://www.w3.org/2000/svg">
<path d="M25.6352 26.0615C26.3186 26.4764 27.1421 26.7333 28 26.7333C-nan -nan -nan -nan -nan -nanC-nan -nan -nan -nan -nan -nanC-nan -nan -nan -nan 28 26.7333L-nan -nanC-nan -nan -nan -nan -nan -nanC-nan -nan -nan -nan -nan -nanC-nan -nan -nan -nan -nan -nanL28 26.7333C28 26.7333 23.3333 31 16 31C8.66667 31 4 26.7333 4 26.7333Lnan nanCnan nan nan nan nan nanCnan nan nan nan nan nanCnan nan nan nan -nan -nanL4 26.7333C-nan -nan -nan -nan -nan -nanC-nan -nan -nan -nan -nan -nanC-nan -nan -nan -nan 4 26.7333C4.85785 26.7333 5.68144 26.4764 6.36483 26.0615C8.13554 24.9867 11.9554 23 16 23C20.0446 23 23.8645 24.9867 25.6352 26.0615Z" fill="black"/>
<path d="M22 14C22 17.3137 19.3137 20 16 20C12.6863 20 10 17.3137 10 14C10 10.6863 12.6863 8 16 8C19.3137 8 22 10.6863 22 14Z" fill="black"/>
<path fill-rule="evenodd" clip-rule="evenodd" d="M16 30.6667C24.1002 30.6667 30.6667 24.1002 30.6667 16C30.6667 7.89982 24.1002 1.33333 16 1.33333C7.89982 1.33333 1.33333 7.89982 1.33333 16C1.33333 24.1002 7.89982 30.6667 16 30.6667ZM16 32C24.8366 32 32 24.8366 32 16C32 7.16344 24.8366 0 16 0C7.16344 0 0 7.16344 0 16C0 24.8366 7.16344 32 16 32Z" fill="black"/>
</svg>
