<svg width="24" height="24" viewBox="0 0 24 24" fill="none" xmlns="http://www.w3.org/2000/svg">
<path fill-rule="evenodd" clip-rule="evenodd" d="M7.74984 7C7.74984 4.65279 9.65263 2.75 11.9998 2.75C14.3471 2.75 16.2498 4.65279 16.2498 7C16.2498 9.34721 14.3471 11.25 11.9998 11.25C9.65263 11.25 7.74984 9.34721 7.74984 7ZM11.9998 1.25C8.8242 1.25 6.24984 3.82436 6.24984 7C6.24984 10.1756 8.8242 12.75 11.9998 12.75C15.1755 12.75 17.7498 10.1756 17.7498 7C17.7498 3.82436 15.1755 1.25 11.9998 1.25ZM10.6149 14.25C7.04658 14.25 3.89425 16.5742 2.83915 19.983C2.41386 21.357 3.44091 22.75 4.87924 22.75H19.1206C20.5589 22.75 21.586 21.357 21.1607 19.983C20.1056 16.5742 16.9533 14.25 13.3849 14.25H10.6149ZM4.27207 20.4265C5.13275 17.6459 7.70416 15.75 10.6149 15.75H13.3849C16.2957 15.75 18.8671 17.6459 19.7278 20.4265C19.8544 20.8354 19.5487 21.25 19.1206 21.25H4.87924C4.45117 21.25 4.1455 20.8354 4.27207 20.4265Z" fill="white"/>
</svg>
