<svg width="32" height="32" viewBox="0 0 32 32" fill="none" xmlns="http://www.w3.org/2000/svg">
<rect x="2.66699" y="5.33154" width="26.6667" height="21.3333" rx="2.66667" stroke="white" stroke-width="2"/>
<path d="M11.0002 11.332C11.0002 11.8843 10.5525 12.332 10.0002 12.332C9.44796 12.332 9.00024 11.8843 9.00024 11.332C9.00024 10.7797 9.44796 10.332 10.0002 10.332C10.5525 10.332 11.0002 10.7797 11.0002 11.332Z" fill="white" stroke="white" stroke-width="2"/>
<path d="M2.66699 23.998L8.10319 17.4455C8.54707 16.9105 9.32756 16.8063 9.89625 17.2061L13.9061 20.0255C14.0825 20.1496 14.3256 20.1114 14.4555 19.9392L19.3706 13.4222C19.907 12.7111 20.9764 12.7157 21.5066 13.4315L29.3337 23.998" stroke="white" stroke-width="2" stroke-linecap="round"/>
</svg>
