<svg width="32" height="32" viewBox="0 0 32 32" fill="none" xmlns="http://www.w3.org/2000/svg">
<path d="M28.3337 15.2451C28.3337 20.7504 22.9782 25.4902 16.0003 25.4902C14.693 25.4902 13.4354 25.321 12.2564 25.0087C11.8379 24.8978 11.4228 24.9652 11.1086 25.0497C10.7768 25.1389 10.4347 25.282 10.1082 25.4393C9.51157 25.7268 8.84738 26.122 8.23171 26.4883C8.17756 26.5205 8.12379 26.5525 8.07047 26.5842C7.38178 26.9933 6.76764 27.3505 6.26465 27.5689C6.15706 27.6157 6.06382 27.6518 5.98408 27.6793C5.98224 27.6241 5.98178 27.5616 5.98322 27.4912C5.99352 26.9883 6.09118 26.3308 6.21297 25.5831C6.22636 25.5009 6.24005 25.4175 6.25388 25.3333C6.35966 24.6894 6.47334 23.9973 6.51935 23.4052C6.5455 23.0688 6.55426 22.7174 6.51503 22.3945C6.47892 22.0973 6.38573 21.6709 6.08034 21.328C4.55058 19.6108 3.66699 17.5053 3.66699 15.2451C3.66699 9.73974 9.02241 5 16.0003 5C22.9782 5 28.3337 9.73974 28.3337 15.2451ZM5.6793 27.7518C5.67938 27.7517 5.68181 27.7516 5.6863 27.7518C5.68146 27.752 5.67921 27.7519 5.6793 27.7518ZM6.02294 27.988C6.02424 27.991 6.02481 27.9926 6.02477 27.9927C6.02473 27.9928 6.02407 27.9913 6.02294 27.988Z" stroke="white" stroke-width="2"/>
<path d="M11.75 15.25C11.75 15.9404 11.1904 16.5 10.5 16.5C9.80964 16.5 9.25 15.9404 9.25 15.25C9.25 14.5596 9.80964 14 10.5 14C11.1904 14 11.75 14.5596 11.75 15.25Z" fill="white"/>
<path d="M17.25 15.25C17.25 15.9404 16.6904 16.5 16 16.5C15.3096 16.5 14.75 15.9404 14.75 15.25C14.75 14.5596 15.3096 14 16 14C16.6904 14 17.25 14.5596 17.25 15.25Z" fill="white"/>
<path d="M22.25 15.25C22.25 15.9404 21.6904 16.5 21 16.5C20.3096 16.5 19.75 15.9404 19.75 15.25C19.75 14.5596 20.3096 14 21 14C21.6904 14 22.25 14.5596 22.25 15.25Z" fill="white"/>
</svg>
