<svg width="32" height="32" viewBox="0 0 32 32" fill="none" xmlns="http://www.w3.org/2000/svg">
<g clip-path="url(#clip0_222_4267)">
<path d="M18.6813 12.374C19.298 11.9114 20.0771 12.6906 19.6146 13.3073L14.5287 20.0885C14.183 20.5495 13.4547 20.3843 13.3417 19.8192L13.2335 19.2781C13.1807 19.0142 12.9744 18.8079 12.7105 18.7551L12.1694 18.6469C11.6043 18.5339 11.4391 17.8056 11.9001 17.4598L18.6813 12.374Z" fill="white"/>
<path d="M4.168 11.6427L26.6056 3.68095C27.6634 3.30557 28.6834 4.32553 28.308 5.38339L20.3463 27.821C19.7223 29.5794 17.2433 29.6011 16.5886 27.8539L13.5131 19.6468C13.3103 19.1056 12.8833 18.6786 12.3421 18.4758L4.13501 15.4003C2.38781 14.7456 2.40957 12.2666 4.168 11.6427Z" stroke="white" stroke-width="2"/>
</g>
<defs>
<clipPath id="clip0_222_4267">
<rect width="32" height="32" rx="5.33333" fill="white"/>
</clipPath>
</defs>
</svg>
