<svg width="24" height="24" viewBox="0 0 24 24" fill="none" xmlns="http://www.w3.org/2000/svg">
<path d="M9 15.75H15" stroke="white" stroke-width="1.5" stroke-linecap="round"/>
<path d="M9 11.25H15" stroke="white" stroke-width="1.5" stroke-linecap="round"/>
<path d="M15.375 4.5H16.875C17.9105 4.5 18.75 5.33947 18.75 6.375V19.875C18.75 20.9105 17.9105 21.75 16.875 21.75H7.125C6.08947 21.75 5.25 20.9105 5.25 19.875V6.375C5.25 5.33947 6.08947 4.5 7.125 4.5H8.625" stroke="white" stroke-width="1.5"/>
<mask id="path-4-outside-1_222_4272" maskUnits="userSpaceOnUse" x="7" y="1" width="10" height="7" fill="black">
<rect fill="white" x="7" y="1" width="10" height="7"/>
<path d="M14.625 6C14.8321 6 15.0024 5.83145 14.9766 5.62596C14.894 4.96823 14.595 4.3524 14.1213 3.87868C13.5587 3.31607 12.7956 3 12 3C11.2044 3 10.4413 3.31607 9.87868 3.87868C9.40496 4.3524 9.10603 4.96823 9.0234 5.62596C8.99758 5.83145 9.16789 6 9.375 6L12 6H14.625Z"/>
</mask>
<path d="M14.625 6C14.8321 6 15.0024 5.83145 14.9766 5.62596C14.894 4.96823 14.595 4.3524 14.1213 3.87868C13.5587 3.31607 12.7956 3 12 3C11.2044 3 10.4413 3.31607 9.87868 3.87868C9.40496 4.3524 9.10603 4.96823 9.0234 5.62596C8.99758 5.83145 9.16789 6 9.375 6L12 6H14.625Z" stroke="white" stroke-width="3" mask="url(#path-4-outside-1_222_4272)"/>
</svg>
