<svg width="32" height="32" viewBox="0 0 32 32" fill="none" xmlns="http://www.w3.org/2000/svg">
<path fill-rule="evenodd" clip-rule="evenodd" d="M10.3331 9.33339C10.3331 6.20378 12.8701 3.66673 15.9998 3.66673C19.1294 3.66673 21.6664 6.20378 21.6664 9.33339C21.6664 12.463 19.1294 15.0001 15.9998 15.0001C12.8701 15.0001 10.3331 12.463 10.3331 9.33339ZM15.9998 1.66673C11.7656 1.66673 8.33309 5.09921 8.33309 9.33339C8.33309 13.5676 11.7656 17.0001 15.9998 17.0001C20.2339 17.0001 23.6664 13.5676 23.6664 9.33339C23.6664 5.09921 20.2339 1.66673 15.9998 1.66673ZM14.1534 19.0001C9.39561 19.0001 5.19251 22.0989 3.7857 26.644C3.21865 28.476 4.58806 30.3334 6.50582 30.3334H25.4943C27.4121 30.3334 28.7815 28.476 28.2145 26.644C26.8076 22.0989 22.6046 19.0001 17.8467 19.0001H14.1534ZM5.69627 27.2354C6.84384 23.5279 10.2724 21.0001 14.1534 21.0001H17.8467C21.7278 21.0001 25.1563 23.5279 26.3039 27.2354C26.4727 27.7806 26.0651 28.3334 25.4943 28.3334H6.50582C5.93507 28.3334 5.52751 27.7806 5.69627 27.2354Z" fill="white"/>
</svg>
