<svg width="24" height="24" viewBox="0 0 24 24" fill="none" xmlns="http://www.w3.org/2000/svg">
<g clip-path="url(#clip0_222_4268)">
<path d="M14.1281 9.19282C14.5714 8.86036 15.1314 9.42037 14.7989 9.86366L10.8691 15.1034C10.6206 15.4348 10.0971 15.316 10.0159 14.9099L9.92287 14.4448C9.88494 14.2551 9.73667 14.1068 9.54698 14.0689L9.08185 13.9758C8.6757 13.8946 8.55697 13.3712 8.88832 13.1227L14.1281 9.19282Z" fill="white"/>
<path d="M2.96354 8.78936L20.0357 2.73151C20.796 2.46171 21.5291 3.19481 21.2593 3.95515L15.2014 21.0273C14.753 22.2911 12.9712 22.3068 12.5006 21.051L10.1239 14.7086C9.97814 14.3196 9.67122 14.0127 9.28224 13.8669L2.93983 11.4902C1.68403 11.0196 1.69967 9.23782 2.96354 8.78936Z" stroke="white" stroke-width="1.5"/>
</g>
<defs>
<clipPath id="clip0_222_4268">
<rect width="24" height="24" rx="3.83333" fill="white"/>
</clipPath>
</defs>
</svg>
